HIERARCHY
ROOT Hips
{
	OFFSET 0.000000 0.000000 0.000000
	CHANNELS 6 Xposition Yposition Zposition Xrotation Yrotation Zrotation
	JOINT LeftUpLeg_virtual
	{
		OFFSET 0.000000 0.000000 0.000000
		CHANNELS 3 Xrotation Yrotation Zrotation
		JOINT LeftUpLeg
		{
			OFFSET 13.026900 -6.336304 -1.092800
			CHANNELS 3 Xrotation Yrotation Zrotation
			JOINT LeftLeg
			{
				OFFSET 0.524474 -46.096886 9.782700
				CHANNELS 3 Xrotation Yrotation Zrotation
				JOINT LeftFoot
				{
					OFFSET -0.524474 -53.427422 -12.948200
					CHANNELS 3 Xrotation Yrotation Zrotation
					JOINT LeftToeBase
					{
						OFFSET 0.192200 -14.009700 16.364100
						CHANNELS 3 Xrotation Yrotation Zrotation
						JOINT LeftToe_End
						{
							OFFSET -1.784700 -0.561700 9.474800
							CHANNELS 3 Xrotation Yrotation Zrotation
							End Site
							{
								OFFSET 0 0 0
							}
						}
					}
				}
			}
		}
	}
	JOINT RightUpLeg_virtual
	{
		OFFSET 0.000000 0.000000 0.000000
		CHANNELS 3 Xrotation Yrotation Zrotation
		JOINT RightUpLeg
		{
			OFFSET -12.883000 -6.336304 -1.092800
			CHANNELS 3 Xrotation Yrotation Zrotation
			JOINT RightLeg
			{
				OFFSET -0.524587 -46.096825 9.782800
				CHANNELS 3 Xrotation Yrotation Zrotation
				JOINT RightFoot
				{
					OFFSET 0.524587 -53.427383 -12.948300
					CHANNELS 3 Xrotation Yrotation Zrotation
					JOINT RightToeBase
					{
						OFFSET -0.192200 -14.009700 16.364100
						CHANNELS 3 Xrotation Yrotation Zrotation
						JOINT RightToe_End
						{
							OFFSET 1.784700 -0.561700 9.474800
							CHANNELS 3 Xrotation Yrotation Zrotation
							End Site
							{
								OFFSET 0 0 0
							}
						}
					}
				}
			}
		}
	}
	JOINT Spine_virtual
	{
		OFFSET 0.000000 0.000000 0.000000
		CHANNELS 3 Xrotation Yrotation Zrotation
		JOINT Spine
		{
			OFFSET 0.072000 7.257294 -0.789700
			CHANNELS 3 Xrotation Yrotation Zrotation
			JOINT Spine1
			{
				OFFSET 0.000000 12.508769 -0.658067
				CHANNELS 3 Xrotation Yrotation Zrotation
				JOINT Spine1_split
				{
					OFFSET 0.000000 12.508769 -0.658067
					CHANNELS 3 Xrotation Yrotation Zrotation
					JOINT Spine2
					{
						OFFSET 0.000000 12.508769 -0.658067
						CHANNELS 3 Xrotation Yrotation Zrotation
						JOINT Neck_virtual
						{
							OFFSET 0.000000 0.000000 0.000000
							CHANNELS 3 Xrotation Yrotation Zrotation
							JOINT Neck
							{
								OFFSET 0.000000 14.033295 7.520400
								CHANNELS 3 Xrotation Yrotation Zrotation
								JOINT Head
								{
									OFFSET 0.000000 8.198502 5.703100
									CHANNELS 3 Xrotation Yrotation Zrotation
									JOINT HeadTop_End
									{
										OFFSET 0.000000 17.760803 13.332701
										CHANNELS 3 Xrotation Yrotation Zrotation
										End Site
										{
											OFFSET 0 0 0
										}
									}
								}
							}
						}
						JOINT LeftShoulder_virtual
						{
							OFFSET 0.000000 0.000000 0.000000
							CHANNELS 3 Xrotation Yrotation Zrotation
							JOINT LeftShoulder
							{
								OFFSET 6.292450 5.785301 -0.669000
								CHANNELS 3 Xrotation Yrotation Zrotation
								JOINT LeftShoulder_split
								{
									OFFSET 6.292450 5.785301 -0.669000
									CHANNELS 3 Xrotation Yrotation Zrotation
									JOINT LeftArm
									{
										OFFSET 13.907140 -6.093903 1.965100
										CHANNELS 3 Xrotation Yrotation Zrotation
										JOINT LeftForeArm
										{
											OFFSET 34.140198 0.000000 0.000000
											CHANNELS 3 Xrotation Yrotation Zrotation
											JOINT LeftHand
											{
												OFFSET 40.960209 0.000000 0.000000
												CHANNELS 3 Xrotation Yrotation Zrotation
												End Site
												{
													OFFSET 0 0 0
												}
											}
										}
									}
								}
							}
						}
						JOINT RightShoulder_virtual
						{
							OFFSET 0.000000 0.000000 0.000000
							CHANNELS 3 Xrotation Yrotation Zrotation
							JOINT RightShoulder
							{
								OFFSET -6.292450 5.785301 -0.669000
								CHANNELS 3 Xrotation Yrotation Zrotation
								JOINT RightShoulder_split
								{
									OFFSET -6.292450 5.785301 -0.669000
									CHANNELS 3 Xrotation Yrotation Zrotation
									JOINT RightArm
									{
										OFFSET -13.907140 -6.093903 1.965100
										CHANNELS 3 Xrotation Yrotation Zrotation
										JOINT RightForeArm
										{
											OFFSET -34.140198 0.000000 0.000000
											CHANNELS 3 Xrotation Yrotation Zrotation
											JOINT RightHand
											{
												OFFSET -40.960209 0.000000 0.000000
												CHANNELS 3 Xrotation Yrotation Zrotation
												End Site
												{
													OFFSET 0 0 0
												}
											}
										}
									}
								}
							}
						}
					}
				}
			}
		}
	}
}
MOTION
Frames: 4
Frame Time: 0.03333333
8.406841 109.629814 -7.027172 0.000000 0.000000 0.000000 7.422630 -33.099527 -21.594254 -35.387528 -10.096341 28.663606 45.089473 5.518440 8.491879 -7.492246 29.019162 -11.203546 -0.315156 -0.000007 0.000002 0.000000 0.000000 0.000000 7.422630 -33.099527 -21.594254 -28.044159 2.678127 26.570665 22.014436 0.072806 7.989008 0.812081 13.207115 -7.716877 -4.013776 -0.000005 -0.000001 0.000000 0.000000 0.000000 7.422630 -33.099527 -21.594254 20.121730 -4.550005 15.936886 14.882774 -0.853687 11.261193 0.000000 0.000000 0.000000 0.000000 0.000000 0.000000 15.131231 -0.648042 9.675227 -9.983871 -2.860090 5.479620 44.315206 -21.168848 34.786369 0.000000 0.000000 0.000000 15.131231 -0.648042 9.675227 1.428831 -22.224479 -11.600539 0.000000 0.000000 0.000000 -29.377094 -24.713921 -57.022849 0.000016 -6.918362 0.000007 0.000000 0.000000 0.000000 15.131231 -0.648042 9.675227 2.724566 8.294336 13.453016 0.000000 0.000000 0.000000 6.429280 49.813823 20.457887 0.000003 22.722608 -0.000019 0.000000 0.000000 0.000000 
8.237627 109.628639 -7.025974 0.000000 0.000000 0.000000 7.434346 -32.820428 -21.539037 -35.457906 -10.000685 28.707770 45.029036 5.495786 8.491111 -7.508504 28.634813 -11.219443 -0.314901 0.000008 -0.000004 0.000000 0.000000 0.000000 7.434346 -32.820428 -21.539037 -28.022702 2.669729 26.612850 22.066984 0.108396 7.934948 0.704986 12.898013 -7.768200 -4.016480 -0.000003 -0.000002 0.000000 0.000000 0.000000 7.434346 -32.820428 -21.539037 19.979277 -4.628988 16.070431 14.807953 -0.877136 11.320877 0.000000 0.000000 0.000000 0.000000 0.000000 0.000000 15.054855 -0.669730 9.734742 -9.931998 -2.864901 5.463874 44.440196 -21.362282 34.797615 0.000000 0.000000 0.000000 15.054855 -0.669730 9.734742 1.413648 -22.300066 -11.647843 0.000000 0.000000 0.000000 -29.076737 -25.170183 -57.285336 -0.000001 -6.920582 -0.000002 0.000000 0.000000 0.000000 15.054855 -0.669730 9.734742 2.887475 8.303047 12.724781 0.000000 0.000000 0.000000 6.502552 49.145055 20.735551 0.000003 23.528026 -0.000013 0.000000 0.000000 0.000000 
8.060291 109.647499 -7.010288 0.000000 0.000000 0.000000 7.432630 -32.467919 -21.463627 -35.464811 -9.940497 28.696876 44.912155 5.554787 8.490764 -7.499683 28.180099 -11.257010 -0.314651 0.000008 -0.000002 0.000000 0.000000 0.000000 7.432630 -32.467919 -21.463627 -27.959026 2.674841 26.636788 22.097224 0.140637 7.850012 0.579765 12.533126 -7.802455 -4.018050 0.000001 -0.000005 0.000000 0.000000 0.000000 7.432630 -32.467919 -21.463627 19.843706 -4.701712 16.206046 14.733102 -0.897699 11.382966 0.000000 0.000000 0.000000 0.000000 0.000000 0.000000 14.978634 -0.687934 9.796563 -9.882960 -2.875226 5.450350 44.559895 -21.567909 34.825430 0.000000 0.000000 0.000000 14.978634 -0.687934 9.796563 1.400861 -22.363195 -11.688518 0.000000 0.000000 0.000000 -28.676228 -25.589638 -57.546939 0.000004 -6.924421 0.000000 0.000000 0.000000 0.000000 14.978634 -0.687934 9.796563 3.056621 8.299164 11.995888 0.000000 0.000000 0.000000 6.503500 48.500845 21.102856 0.000003 24.320676 -0.000010 0.000000 0.000000 0.000000 
7.878324 109.681870 -6.976337 0.000000 0.000000 0.000000 7.417103 -32.064446 -21.378396 -35.412601 -9.910259 28.636398 44.761665 5.617058 8.490229 -7.482866 27.748055 -11.294991 -0.314409 0.000008 -0.000002 0.000000 0.000000 0.000000 7.417103 -32.064446 -21.378396 -27.852895 2.691014 26.637572 22.107806 0.146297 7.755549 0.441384 12.161441 -7.826988 -4.018165 0.000004 -0.000002 0.000000 0.000000 0.000000 7.417103 -32.064446 -21.378396 19.704814 -4.763067 16.349702 14.656551 -0.912784 11.448696 0.000000 0.000000 0.000000 0.000000 0.000000 0.000000 14.900865 -0.700201 9.861866 -9.834049 -2.890733 5.438138 44.669782 -21.779452 34.848814 0.000000 0.000000 0.000000 14.900865 -0.700201 9.861866 1.391934 -22.407236 -11.717330 0.000000 0.000000 0.000000 -28.180164 -25.969925 -57.807204 0.000003 -6.932581 0.000003 0.000000 0.000000 0.000000 14.900865 -0.700201 9.861866 3.230739 8.286851 11.261515 0.000000 0.000000 0.000000 6.415853 47.880067 21.578746 0.000000 25.090744 -0.000003 0.000000 0.000000 0.000000 
